<svg width="15" height="15" viewBox="0 0 15 15" fill="none" xmlns="http://www.w3.org/2000/svg">
<path d="M10 4.375C10 4.20924 10.0658 4.05027 10.1831 3.93306C10.3003 3.81585 10.4592 3.75 10.625 3.75C10.7908 3.75 10.9497 3.81585 11.0669 3.93306C11.1842 4.05027 11.25 4.20924 11.25 4.375C11.25 4.54076 11.1842 4.69973 11.0669 4.81694C10.9497 4.93415 10.7908 5 10.625 5C10.4592 5 10.3003 4.93415 10.1831 4.81694C10.0658 4.69973 10 4.54076 10 4.375Z" fill="white"/>
<path fill-rule="evenodd" clip-rule="evenodd" d="M7.5 4.53125C6.71264 4.53125 5.95753 4.84403 5.40078 5.40078C4.84403 5.95753 4.53125 6.71264 4.53125 7.5C4.53125 8.28736 4.84403 9.04247 5.40078 9.59922C5.95753 10.156 6.71264 10.4688 7.5 10.4688C8.28736 10.4688 9.04247 10.156 9.59922 9.59922C10.156 9.04247 10.4687 8.28736 10.4688 7.5C10.4687 6.71264 10.156 5.95753 9.59922 5.40078C9.04247 4.84403 8.28736 4.53125 7.5 4.53125ZM5.46875 7.5C5.46875 6.96128 5.68276 6.44462 6.06369 6.06369C6.44462 5.68276 6.96128 5.46875 7.5 5.46875C8.03872 5.46875 8.55538 5.68276 8.93631 6.06369C9.31724 6.44462 9.53125 6.96128 9.53125 7.5C9.53125 8.03872 9.31724 8.55538 8.93631 8.93631C8.55538 9.31724 8.03872 9.53125 7.5 9.53125C6.96128 9.53125 6.44462 9.31724 6.06369 8.93631C5.68276 8.55538 5.46875 8.03872 5.46875 7.5Z" fill="white"/>
<path fill-rule="evenodd" clip-rule="evenodd" d="M10.7863 1.77054C8.60212 1.52831 6.3979 1.52831 4.21376 1.77054C2.95626 1.91117 1.94063 2.90179 1.79313 4.16554C1.53445 6.38093 1.53445 8.6189 1.79313 10.8343C1.94063 12.098 2.95563 13.0887 4.21376 13.2293C6.39792 13.471 8.60209 13.471 10.7863 13.2293C12.0438 13.0887 13.0594 12.098 13.2069 10.8343C13.4656 8.6189 13.4656 6.38093 13.2069 4.16554C13.0594 2.90179 12.0444 1.91117 10.7863 1.77054ZM4.31751 2.70179C6.43269 2.46724 8.56732 2.46724 10.6825 2.70179C11.5138 2.79554 12.1794 3.45117 12.2763 4.27492C12.527 6.41761 12.527 8.58223 12.2763 10.7249C12.2262 11.1281 12.0416 11.5026 11.7524 11.7879C11.4632 12.0732 11.0863 12.2527 10.6825 12.2974C8.56732 12.532 6.43269 12.532 4.31751 12.2974C3.91372 12.2527 3.53679 12.0732 3.2476 11.7879C2.95842 11.5026 2.77387 11.1281 2.72376 10.7249C2.47304 8.58223 2.47304 6.41761 2.72376 4.27492C2.77387 3.87177 2.95842 3.49728 3.2476 3.21195C3.53679 2.92662 3.91372 2.74649 4.31751 2.70179Z" fill="white"/>
</svg>
