<svg width="15" height="15" viewBox="0 0 15 15" fill="none" xmlns="http://www.w3.org/2000/svg">
<path d="M10.3751 3.6375C9.94796 3.1497 9.71253 2.52337 9.7126 1.875H7.78135V9.625C7.76676 10.0445 7.5898 10.4419 7.28779 10.7334C6.98578 11.0249 6.58235 11.1878 6.1626 11.1875C5.2751 11.1875 4.5376 10.4625 4.5376 9.5625C4.5376 8.4875 5.5751 7.68125 6.64385 8.0125V6.0375C4.4876 5.75 2.6001 7.425 2.6001 9.5625C2.6001 11.6438 4.3251 13.125 6.15635 13.125C8.11885 13.125 9.7126 11.5313 9.7126 9.5625V5.63125C10.4957 6.19366 11.436 6.4954 12.4001 6.49375V4.5625C12.4001 4.5625 11.2251 4.61875 10.3751 3.6375Z" fill="white"/>
</svg>
